<svg xmlns="http://www.w3.org/2000/svg" viewBox="0 0 882.37 455.8">
  <defs>
    <style>
      .a {
        fill: #252525;
      }
    </style>
  </defs>
  <title>camo_90</title>
  <g>
    <path class="a" d="M911.6,220.81c-1.34.13-2.68.31-4,.39a8.63,8.63,0,0,1-5.21-1.33c-.8-.49-1.69-.84-2.53-1.26a2.42,2.42,0,0,0-3.1.66,6.49,6.49,0,0,0-1.74,4.42c0,1.48.08,3,.11,4.45,0,.81,0,1.62,0,2.43a3.6,3.6,0,0,1-2.52,3.55,3.87,3.87,0,0,1-4.65-1.53c-.83-1.14-1.6-2.34-2.32-3.56-1.49-2.51-3.51-3.34-6.31-2.5a5.06,5.06,0,0,0-1.13.44c-3,1.76-6,3.52-8,6.35-2.78,3.88-7,3.25-10.13,1.76a12.41,12.41,0,0,1-3.68-2.48,1.87,1.87,0,0,0-1.22-.56c-1.15,0-1.76.84-2.13,1.93a22.26,22.26,0,0,0-.91,4.35c-.25,1.94-1.07,2.74-3,2.84a24.56,24.56,0,0,0-4,.57c-2.12.45-3.13-.22-3.68-2.36a12.15,12.15,0,0,0-.56-1.94c-.82-1.84-2.59-2-3.77-.33a6,6,0,0,0-.66,1.25,4.52,4.52,0,0,1-3.73,3.05c-1.39.18-2,1.17-2.84,2.09-2,2.27-4.28,2.91-6.89,1.92a4.58,4.58,0,0,1-2.28-6.7c.72-1.3,1.94-2.24,2.6-3.59a2.5,2.5,0,0,0-2.11-2.59,21.19,21.19,0,0,0-8.63-.27,16.91,16.91,0,0,1-2.2.26,4.46,4.46,0,0,1-4.18-2.34,10,10,0,0,0-5.3-4.77,7.56,7.56,0,0,0-6.29,0c-3,1.54-6.25,2-9.46,2.82-5.77,1.41-11.13,3.7-15.28,8.21A14.84,14.84,0,0,1,764.9,240c-.18.08-.36.19-.55.26a4.35,4.35,0,0,1-4.72-.71,4.2,4.2,0,0,1-.1-4.93,15.23,15.23,0,0,1,4.88-4.77c.87-.59,1.92-1,2.1-2.22-.5-.83-1.17-.72-1.81-.44a9.24,9.24,0,0,0-2.14,1.13,12.18,12.18,0,0,1-4.37,2c-5,1.47-9.91,3-15,4.23-1.83.43-3.56,1.26-5.37,1.77s-3.47.74-4.72-.88c-.61-3.48,1.59-7.47,4.74-8.59a9.78,9.78,0,0,0,3.26-2,23.5,23.5,0,0,1,12.46-5.78,25.74,25.74,0,0,0,9.67-3.41,28.85,28.85,0,0,1,7.82-3.28c4.49-1.16,8.23-3.61,11.88-6.33,2.21-1.64,4.38-3.35,7.14-4.11a6.59,6.59,0,0,0,3-2.29c2.52-2.86,4-3.17,7.44-1.46,2.71,1.36,5.45,2.67,8.23,3.9a11,11,0,0,0,7.68.58,23.09,23.09,0,0,1,6.39-.89,7.87,7.87,0,0,1,6,2.48c1.35,1.42,2.77,2.76,4.08,4.22a38.06,38.06,0,0,0,3.65,3.5c2.56,2.19,8,2.21,10.25-.37a12,12,0,0,1,4.77-3,9.11,9.11,0,0,0,3.36-2.18,11.48,11.48,0,0,1,5.52-3.21,4.81,4.81,0,0,0,1.52-.55c2.38-1.66,5.14-1.59,7.81-1.58a14.65,14.65,0,0,1,5.65,1.37,67.38,67.38,0,0,0,14.77,4.72,10.2,10.2,0,0,0,6.87-.87c4-2.11,8.1-3.93,12.16-5.89.79-.38,1.56-.79,2.33-1.19Z" transform="translate(-29.23)"/>
    <path class="a" d="M743.46,395.84a6.19,6.19,0,0,1,2.85,1.47,8.74,8.74,0,0,0,4.5,2.15,13,13,0,0,1,5.48,1.92,3.47,3.47,0,0,0,1.93.51,22.32,22.32,0,0,1,9.56,2.28,3.85,3.85,0,0,0,2.56.32c2.52-.43,4.69.08,6.21,2.35a3.08,3.08,0,0,0,1.18,1.09,11,11,0,0,1,4.24,3.31c.64.82.81.72,2.15,0a9.76,9.76,0,0,0-1.63-4.83,23.61,23.61,0,0,0-3.93-4.87c-2.34-2.3-3.44-4.94-2.47-8.24.19-.64.12-1.34.26-2a2,2,0,0,1,2.87-1.61,7,7,0,0,1,2.42,1.45,30,30,0,0,1,2.45,2.4,7.69,7.69,0,0,0,3.68,2.38,7.94,7.94,0,0,1,5.54,4.91c.54,1.38,1.07,2.77,1.61,4.15a14.42,14.42,0,0,0,1.6,3,3.82,3.82,0,0,0,2.83,1.73,33.41,33.41,0,0,0,5.24.34,3.14,3.14,0,0,0,1.87-.33c.52-.5.37-1.05.37-1.58,0-2.68.91-4.88,3.46-6.17.84-.43,1.62-1,2.43-1.46a11.72,11.72,0,0,0,4.45-4.31,31.57,31.57,0,0,1,2.13-3.2,5.55,5.55,0,0,1,2.86-2.16,2.37,2.37,0,0,1,3.12,1.47,5.37,5.37,0,0,1,.32,3,16.2,16.2,0,0,1-1.19,4.07,16.23,16.23,0,0,0-1.33,4.87c-.42,3.75,1.2,5.09,4.29,5a16.76,16.76,0,0,0,2-.21c2.69-.36,4.33,1,4.28,3.75a50,50,0,0,1-.39,5.45,12.21,12.21,0,0,0,1.69,8.36,11,11,0,0,1,1.32,8.71,30.36,30.36,0,0,0-.37,11.25,10.54,10.54,0,0,0,1.62,4.11,19.56,19.56,0,0,1,2.79,5.14h-30a1.8,1.8,0,0,1,1.32-.85,6.43,6.43,0,0,0,3.36-1.77,6.7,6.7,0,0,1,5-1.91,1.44,1.44,0,0,0,1.15-.32,1.27,1.27,0,0,0-.13-1.66c-1.44-1.93-1.36-4-.75-6.19a37.33,37.33,0,0,0,1.28-6.75c.13-1.37.35-2.8-.59-4.1-1,.16-1.15,1-1.39,1.6a30.67,30.67,0,0,1-2.18,4.56c-1.4,2.4-3.28,2.67-5.24.67a3.39,3.39,0,0,0-3.24-1.12c-1.88.29-2.86-.19-3.44-1.4a3.37,3.37,0,0,1,.79-3.89c.41-.44,1-.76,1.11-1.39a3.46,3.46,0,0,0-4.26-2.35,10.84,10.84,0,0,0-2.06.83,12,12,0,0,1-9.41.76,10.77,10.77,0,0,0-8.47.32,11.3,11.3,0,0,1-4.53.94,9.82,9.82,0,0,0-7.09,3,2.25,2.25,0,0,1-.61.53c-4.42,2.13-7.8,5.76-12,8.22a39.89,39.89,0,0,1-11.58,4.68,21.87,21.87,0,0,0-4.61,1.48,9,9,0,0,1-7.83-.2c-2.09-.94-2.45-2.92-.86-4.57a9.15,9.15,0,0,1,1.93-1.46c3.54-2.1,6.74-4.7,10.28-6.82a47.53,47.53,0,0,0,6.78-5.43,82.16,82.16,0,0,1,8.75-6.17,11.62,11.62,0,0,0,1.46-1.08,11.49,11.49,0,0,1,8.18-3.4c1.91,0,2.42-.76,2.09-2.44-.66-.55-1.4-.32-2.12-.18a6.43,6.43,0,0,1-4.49-.68,15.29,15.29,0,0,0-4.56-1.62c-2.56-.47-4.61-2.17-6.72-2.72-.83-.77-.6-1.61-1.18-2.07a5.42,5.42,0,0,0-2.66-.84c-2.2-.4-4.11-1.2-5.22-3.35a5.73,5.73,0,0,0-2.39-2.12,11.54,11.54,0,0,1-3.16-2.79,4,4,0,0,1-.84-1.58C739.55,397.53,740.55,396.22,743.46,395.84Z" transform="translate(-29.23)"/>
    <path class="a" d="M538.06,433.11c-.44.51-.89,1-1.32,1.53a2.72,2.72,0,0,1-2.86,1.05,13.08,13.08,0,0,0-2.82-.14A3.27,3.27,0,0,1,527.6,433a7.38,7.38,0,0,1-.31-2.59,17.42,17.42,0,0,0-.57-5.61c-.15-.5-.18-1.08-.87-1.41-.71.47-.6,1.41-1,2a11.65,11.65,0,0,0-1.74,7.72,7.82,7.82,0,0,1-.48,2.78,14.23,14.23,0,0,0-.69,4.38,8.25,8.25,0,0,1-1.27,4.17c-1.2,2.18-2.82,4.08-4,6.3-.81,1.58-2.18,2.42-3.15,2.06-1.54-.58-1.41-2-1.42-3.25a34.84,34.84,0,0,1,1.57-9.14,11.39,11.39,0,0,0,.46-3.59c0-.68-.12-1.36-.88-1.71-.91-.15-1.34.46-1.61,1.18a10.74,10.74,0,0,0-.67,2.33,45.18,45.18,0,0,1-5.77,17.14H491c.13-3,2-5.15,3.93-7.07a21.41,21.41,0,0,0,3.93-5.1,11.05,11.05,0,0,1,3.43-3.92,9.74,9.74,0,0,0,3.74-6.26c0-.2-.07-.38-.37-.42-.72.24-.79,1-1.07,1.57-.42.85-.77,1.72-1.2,2.57a2.78,2.78,0,0,1-1.71,1.63,3.25,3.25,0,0,0-2.17,2.22,5.47,5.47,0,0,1-3.18,3.45,4.41,4.41,0,0,0-1.26,1c-1,.86-1.84,1.79-2.85,2.58-1.38,1.1-2.87,2-4.71,1.6-1.19-1.17-1-2.44-.52-3.67a4.38,4.38,0,0,0-.22-3.7,7.06,7.06,0,0,1-.58-4.73c.21-1.06.29-2.14.52-3.2a4,4,0,0,0-.27-2.76,5.33,5.33,0,0,1,.2-5.23,7.46,7.46,0,0,0,.91-2.87,6.38,6.38,0,0,1,2.72-4.55c1-.74,2-1.41,3-2.09,3.35-2.25,6.88-4.23,9.81-7.11s4.84-6.14,7.31-9.16a4,4,0,0,0,.94-2.21,3.08,3.08,0,0,0,.22-2,2.72,2.72,0,0,1,1.37-2.73,7.13,7.13,0,0,0,3.2-4,6,6,0,0,1,5-4.36,9.18,9.18,0,0,0,5.15-2.59c1.33-1.37,2.78-1.11,4.27-.45a2.86,2.86,0,0,1,1.62,3.37c-.34,2.2.7,3.58,2.43,4.66A13.33,13.33,0,0,0,539,392a6.18,6.18,0,0,0,4.68-.68,7.45,7.45,0,0,1,5.57-1.16,6.73,6.73,0,0,0,1.41,0,35.91,35.91,0,0,1,6-.11,18.81,18.81,0,0,0,7.8-.4c2.46-.69,4.94-1.28,7.4-2a6,6,0,0,1,6.26,1.71,5.8,5.8,0,0,0,2.44,1.73,6.69,6.69,0,0,0,5,1.77,32.89,32.89,0,0,1,6.79,1A5.43,5.43,0,0,1,594.7,395c1.76,1.43,2.48,4.6,1.29,6.23a11.55,11.55,0,0,1-3.7,3.41,4.54,4.54,0,0,1-5.31-.27,3.2,3.2,0,0,0-2.5-.92,2.35,2.35,0,0,0-.24.43c-.12.43.16.77.25,1.16.57,2.49.66,4.89-.81,7.2-1.89,3-5.75,3.14-7.33,0a10.8,10.8,0,0,0-5.36-5,9.74,9.74,0,0,1-4.16-3.72,20,20,0,0,0-1.06-4.06c-1.1.31-1.49,1.52-2.83,1.63a3.94,3.94,0,0,0-3.84.83,10.76,10.76,0,0,1-6-1.6c-1.45-.76-2.88-1.46-4.61-1a2.31,2.31,0,0,1-1.77-.23,3.41,3.41,0,0,0-3.64.16,9.83,9.83,0,0,1-3.59,1.26c-.59.09-1.23.15-1.43.93,0,1,.93,1.2,1.62,1.55a3.69,3.69,0,0,1,2.28,3.9,9.59,9.59,0,0,1,0,1.21,7.4,7.4,0,0,0,.24,3.57c.31,1.17.5,2.39-.46,3.37-1.69.3-6.36-.7-8.58-1.81a46.39,46.39,0,0,1-4.57-6.11,1.47,1.47,0,0,0-.24,1.87,15.21,15.21,0,0,1,.81,3.7,5,5,0,0,0,2.05,3.76,3.88,3.88,0,0,1,2,3.65,2.88,2.88,0,0,0,.28.94c.47,2,2.16,2.71,3.76,3.51C537.52,427.42,538.13,430.24,538.06,433.11Z" transform="translate(-29.23)"/>
    <path class="a" d="M442,455.8c-.1-.57-.53-.76-1-.82-1.93-.27-3.87-.65-5.79.12a2.14,2.14,0,0,1-1.83.19c-.65-.8-.17-1.6.18-2.38s.74-1.29,1-2a1.86,1.86,0,0,0-.45-2.29c-2-.38-3.81-.24-5.12,1.7a1.94,1.94,0,0,1-1.74,1c-.78-.13-.79-.81-1.07-1.16a.46.46,0,0,0-.56.23c-.58,1.08-1.14,2.17-2.41,2.4-.77,0-1.09-.69-1.75-.81-.09,0-.27,0-.35.06a4,4,0,0,1-5.28.74,6.54,6.54,0,0,0-3-.53,5.39,5.39,0,0,1-2.45-.77,8,8,0,0,1-4.32-5.53,6.6,6.6,0,0,0-1.37-2.46c-2.12-2.77-2-5.77-.74-8.81a18.32,18.32,0,0,1,2.46-3.95c2.28-3,4.58-6,6.86-9,.41-.54.8-1.09,1.19-1.64a5.49,5.49,0,0,0,1-4.41,31.43,31.43,0,0,1-.42-3.82,6.09,6.09,0,0,1,2.21-5.2,14.41,14.41,0,0,0,3.25-3.84,3.11,3.11,0,0,1,.49-.64c1.44-1.51,3.48-1.22,4.26.7a6.83,6.83,0,0,0,1.75,2.66,2.89,2.89,0,0,1,.64,3.19,13.42,13.42,0,0,1-1.83,3.59c-.59.94-1.25,2-.09,3.16,2-.26,3.06-2.22,4.89-2.72,1.16.81.75,1.86.45,2.89a11.84,11.84,0,0,1-5.08,5,11.27,11.27,0,0,0-1.84,1.21c-1.64,1.28-3.25,2.59-4.87,3.9a13.41,13.41,0,0,0-4.37,6.87,13.62,13.62,0,0,0-.67,3.57c-.12,2.52,1.75,3.7,4,2.62a3.28,3.28,0,0,0,.53-.29,4.19,4.19,0,0,1,4-.78,1.47,1.47,0,0,0,1.25-.27c.4-1.7,1.47-3.49,1.5-5.49a4.07,4.07,0,0,1,1.89-3.74c.59-.06,1.23,0,1.72-.68a2,2,0,0,0,.15-.64,3.68,3.68,0,0,1,2.64-3.84,14.62,14.62,0,0,0,3.71-2.38,3.26,3.26,0,0,1,3.17-.94,3.43,3.43,0,0,1,1.43,3.47c-.1.89-.46,1.67-.64,2.52-.74,1.94-1.34,3.93-2.26,5.8a12.91,12.91,0,0,0-.93,3.07c-.17.85-.22,1.76.63,2.19a1.6,1.6,0,0,0,1.11-.23c1.56-.63,2.74-2,4.38-2.42a4.7,4.7,0,0,0,3.23-3.29c.48-1.32,1-2.64,1.47-4a10.42,10.42,0,0,1,4.42-3.42c1-.49,2-.82,3,.2a13,13,0,0,0,.64,4.78,5.81,5.81,0,0,1-1.07,6.06c-1.44,1.78-3,3.45-4.29,5.37a3.28,3.28,0,0,1-3.67,1.54,1.94,1.94,0,0,0-1.34.2,8.23,8.23,0,0,0-2.31,3.45c.91,1.29,1.24,1.49,2.91,1.24a16.82,16.82,0,0,0,8.9-4.06,28.22,28.22,0,0,0,4.81-5.45,22.43,22.43,0,0,1,7.46-6.71,7.21,7.21,0,0,1,4.46-1.06,5.49,5.49,0,0,0,4.13-1.24,2.47,2.47,0,0,1,1.8.09c.87,1,.5,2-.13,2.92a3.91,3.91,0,0,0-.88,2.41,7,7,0,0,1-1.93,5c-.86,1-1.8,2-2.66,3-.5.6-1.15,1.18-.87,2.14a2,2,0,0,0,1.92.06c1.08-.38,2.15-.77,3.22-1.17a14.51,14.51,0,0,1,6.29-1.15c.94.07,1.73.29,2,1.43a2.08,2.08,0,0,1-.24.7c-1.78,2.19-3.55,4.39-5.41,6.51a5.35,5.35,0,0,1-4,1.75,9.34,9.34,0,0,0-3.76.66c-1.88.92-4.15,1.34-5.11,3.58Z" transform="translate(-29.23)"/>
    <path class="a" d="M881.94,330.56c-2.05.16-3.86,1.15-5.76,1.81-2.87,1-5.69,1.62-8.64.37a6.22,6.22,0,0,0-2.8-.18,4.89,4.89,0,0,1-3.58-1.06,3.3,3.3,0,0,0-2.42-.82,3.63,3.63,0,0,1-3.24-1.73,13.81,13.81,0,0,0-3.56-3.5c-1.84-1.2-2.16-3.31-2.12-5.39,0-1.61.12-3.22.18-4.82a9.11,9.11,0,0,1-.24-4.36,48,48,0,0,1,1.45-6.64,23.67,23.67,0,0,1,2.6-5.45,4.37,4.37,0,0,0,.53-3.84c-.55-1.73-.22-3.59-.74-5.36a2.63,2.63,0,0,1,.93-2.55,5.46,5.46,0,0,0,1.55-3.2c.23-1.19.54-2.36.87-3.52a5.55,5.55,0,0,1,1.07-2.15,3.14,3.14,0,0,1,3.28-1,2.85,2.85,0,0,1,2.12,2.44,15.76,15.76,0,0,1-.45,7.56c-.53,2-.29,4.13-.9,5.88a3,3,0,0,0,1.68,1.22c.17.29.37.57.51.87,1,2.23.33,3.75-2.07,4.47-.26.08-.52.13-.78.19-2.12.5-2.56.82-2.69,2.91-.18,2.82-.71,5.62-.64,8.46a9.19,9.19,0,0,0-.88,3.08,4,4,0,0,0,1.25,4.1l5.21-.31a1.81,1.81,0,0,0,.78-.16c.93-.55,1.84-1.13,2.74-1.73.63-.42,1.47-.29,2.16-1,.12-.2.33-.55.54-.89,1.25-2,2.14-4.21,3.64-6.06A5,5,0,0,1,876.4,306c4.13-.62,8.28-1.11,11.15,3a7.87,7.87,0,0,0,1.25,1.33,3.19,3.19,0,0,0,2.5,1.12,25.23,25.23,0,0,0,4.81,1.46c1.64.41,2.4-.27,2.49-1.95a9.47,9.47,0,0,0-.39-2.78,9.61,9.61,0,0,1-.19-4.19,3.09,3.09,0,0,1,2.78-2.76c2.43,0,4.73.42,6.29,2.52a4.77,4.77,0,0,0,4.52,2.07v14.18c-1.81.68-3.43,1.87-5.5,1.86a7.57,7.57,0,0,0-4.06,1.61,47.5,47.5,0,0,1-5.28,3.34c-2.61,1.21-5.58,1.63-7.57,3.58-1.4-.11-2.54-.27-3.68-.28A7,7,0,0,0,881.94,330.56Z" transform="translate(-29.23)"/>
    <path class="a" d="M909.54,113c.32-1.76-.35-3.33-.95-4.91a5.57,5.57,0,0,1-.32-3.17c.39-1.92,1.2-2.62,3.32-2.82v61.18a9,9,0,0,1-4.5-6.42c-.64-2.9-1.26-5.8-1.91-8.69a3,3,0,0,0-1.56-2.44c-3.3.05-3,0-5.06-2.2-2.69-2.83-5.87-3-8.63-.18-1.23,1.24-2.36,2.6-3.46,4-2.48,3.05-8.13,3-10.61,1.28a5.19,5.19,0,0,1-2.4-2.88,3.71,3.71,0,0,0-1-1.74c-2-1.91-3.35-4.36-5.68-6-2-1.42-2.28-3.62-1-5.73.85-1.43,1.87-1.75,3.15-.7,1.82,1.49,4.35,1.34,6.15,2.84a1.93,1.93,0,0,0,1.38.11,12.56,12.56,0,0,1,5.2.26c1.61.36,2.53-.17,3.28-1.66.36-.72.58-1.52,1-2.22,1.78-3.08,4.2-4.24,7.41-2.47a11.61,11.61,0,0,0,3.23,1.15,4.63,4.63,0,0,0,3.83-.77c4.84-3.4,3.51-1.88,5.43-7.3.11-.32.16-.66.28-1C907.15,118,908,115.3,909.54,113Z" transform="translate(-29.23)"/>
    <path class="a" d="M473.58,34.79a5.89,5.89,0,0,1,1.35-4.66c.9-1,.93-2.62,1.67-3.86a54,54,0,0,1,5-6.86,30.51,30.51,0,0,0,2.9-4.13,16.54,16.54,0,0,1,3.27-4.08A9.7,9.7,0,0,0,491,3.64c0-1.21,0-2.43.07-3.64h14.18c-1.28,2.71-1.63,5.7-2.48,8.53A65.45,65.45,0,0,1,499,18.59,28.85,28.85,0,0,1,489,30a30.09,30.09,0,0,0-6.09,5.59,12.26,12.26,0,0,1-3.73,3.07,3.91,3.91,0,0,1-5.4-1.55A3.7,3.7,0,0,1,473.58,34.79Z" transform="translate(-29.23)"/>
    <path class="a" d="M270.24,196.49a14.61,14.61,0,0,1,2,2,4.31,4.31,0,0,0,3.58,1.95c1.21.07,2.42.13,3.63.12a2.94,2.94,0,0,1,3.07,2.13,7.33,7.33,0,0,1,.54,1.93,9,9,0,0,0,1.69,4.69,7.09,7.09,0,0,1,1.12,2.58,15.77,15.77,0,0,0,3.18,6.47,9.94,9.94,0,0,1,1.64,3.44,3.54,3.54,0,0,1-1,4.05c-1.11.91-2.4.8-4.12-.17-1-.57-1.8-1.41-2.74-2.06l-2.92-1.79a3.26,3.26,0,0,1-1.75-3.17,24.12,24.12,0,0,1,.2-3,2.78,2.78,0,0,0-1.66-3.31,17.35,17.35,0,0,1-4.19-2.78,2.77,2.77,0,0,0-2.45-.66,7.78,7.78,0,0,1-6.89-2.05,4.36,4.36,0,0,0-3.7-1.19,4.26,4.26,0,0,1-4.11-1.66,6.49,6.49,0,0,0-6.06-2.52,34.61,34.61,0,0,1-8.64-.36c-2.6-.4-5.08.51-7.5,1.27a15.74,15.74,0,0,0-4.59,2,3.24,3.24,0,0,1-2.92.28c-1.16-1.84-1-3,.54-4.42a18.58,18.58,0,0,1,5.27-3,36.81,36.81,0,0,0,4.5-2.3c.65-.39,1.26-.83,1-1.71-.36-.68-1-.71-1.59-.78a1.78,1.78,0,0,1-1.78-1.37,2.1,2.1,0,0,1,1-2.24c.7-.52,1.6-.76,2.08-1.56a2.36,2.36,0,0,0,.18-.51,1.21,1.21,0,0,0-.85-1c-1.16-.06-2.51.61-3.82-.14a3.55,3.55,0,0,1-.41-3.45,8.73,8.73,0,0,1,2-3,20.82,20.82,0,0,0,4.08-5.73,8.53,8.53,0,0,1,4.51-4.44,19.45,19.45,0,0,1,3.8-1.34A3.8,3.8,0,0,0,248,167a13.51,13.51,0,0,1,8.5-3.26,4.48,4.48,0,0,0,1-.14,11.71,11.71,0,0,1,5-.29,3.37,3.37,0,0,0,2.36-.31c2.23-1.5,4.58-2.54,7.07-2.09,1.18-.62,1.58-1.74,2.65-2,.73-.2,1.48.24,2.45-.2,1-.7,1.42-2.11,2.15-3.3,1.64-2.68,3.77-4.27,7.27-2.86a4.14,4.14,0,0,0,3.87-.27,11.68,11.68,0,0,1,5.6-1.49,47.56,47.56,0,0,0,5.54-.8c.1,0,.17-.2.27-.32.06-1-.58-1.24-1.36-1.42a17.12,17.12,0,0,0-4-.37,21.36,21.36,0,0,1-5.42-.45,4.25,4.25,0,0,0-2.74-.44,4.55,4.55,0,0,1-4.69-3.12c0-.13-.12-.24-.16-.37a3,3,0,0,0-2.75-2.05c-.8-.11-1.61-.15-2.41-.25a4.31,4.31,0,0,1-2.83-1.42,15.46,15.46,0,0,0-3.88-3.18,5.65,5.65,0,0,1-2.42-6.7,3.42,3.42,0,0,1,2.54-1,10.36,10.36,0,0,1,7.87,2.5c1.7,1.54,3.79,1.84,5.88,2.09.6-.81.16-1.44-.19-2a11.24,11.24,0,0,1-1.79-4.89,9.59,9.59,0,0,0-1-2.65,6.51,6.51,0,0,1-.22-5,3.33,3.33,0,0,1,2.88-.44c3.43.92,6.55,2.34,8.72,5.38,1,1.44,1.82,3,2.76,4.47.53.83,1.13,1.54,2.31,1a4.66,4.66,0,0,0,.5-2.94,23.17,23.17,0,0,1,.47-5.83c.59-2.47,2.16-3.31,4.54-2.4.56.21,1.1.5,1.55.71.86,0,1.6,0,2.33,0,2.2.09,2.94.9,3.1,3.12a11.82,11.82,0,0,1-1.25,5.25c-1.16,2.93.29,4.82,3.43,4.57a4,4,0,0,0,.78-.19c1.16-.34,2.31-.73,3.49-1a9.13,9.13,0,0,0,6-5.25c.53-1.09,1-2.21,1.47-3.33a5.62,5.62,0,0,1,2.68-2.9c2.31-1.23,2.68-3.28,1-5.32-.68-.83-1.34-1.68-2-2.57a43.57,43.57,0,0,1-2.93-6,7.28,7.28,0,0,0-.45-2.37,53.82,53.82,0,0,1-2.43-15.13,54.48,54.48,0,0,0-.47-5.84c-.18-1.54-.76-2.89-2.45-3.38a3.79,3.79,0,0,1-2.46-2.51,8.56,8.56,0,0,0-2.16-3.36c-1.21-1.1-1.05-2.56-.8-4a1.78,1.78,0,0,1,1.59-1.38,11,11,0,0,1,6.17.51,3.46,3.46,0,0,1,1.71,1.66,4,4,0,0,0,.88,1.41,3.63,3.63,0,0,0,2.11.34,13.89,13.89,0,0,1,2.4.29,3.61,3.61,0,0,1,3.11,3,16.86,16.86,0,0,0,1.88,4.88,6.5,6.5,0,0,1,.45,4.93,6.42,6.42,0,0,0,.8,5.77,7.29,7.29,0,0,1,1,4.27,20.2,20.2,0,0,0,.11,2.63c.13.93.31,1.89,1.39,2.27,1-.09,1.12-.88,1.36-1.56.77-2.17,1.58-4.29,3.4-5.88a5.54,5.54,0,0,0,1.37-2.89,17.13,17.13,0,0,1,2.77-6.24,4.72,4.72,0,0,0,.47-5.16,11.73,11.73,0,0,0-1.64-2.78,17.06,17.06,0,0,1-3.75-8.61,38.11,38.11,0,0,1-.7-8c.1-1.86-.49-3.74-.37-5.64-.1-1.48-1.11-2.54-1.73-3.79-1-1.94-.91-2.32.56-3.9.64-.69,1.25-1.4,1.87-2.1a2.61,2.61,0,0,1,2.45-1.09A16.25,16.25,0,0,1,349.25,47a10.75,10.75,0,0,0,.77,5.13,18.29,18.29,0,0,1,1.7,6.37c.14,1.33.62,2.56,2.06,2.93a3.52,3.52,0,0,0,3.88-1,3.9,3.9,0,0,1,1-1C361,58.24,362,56,362.94,53.8c.71-1.67,1.36-3.37,1.94-5.08a4.42,4.42,0,0,1,2.61-2.88,4.42,4.42,0,0,0,1.62.41,4.09,4.09,0,0,1,1.7,2.69,85.54,85.54,0,0,0-.3,10.7,10.28,10.28,0,0,1-5.16,9.26,7.89,7.89,0,0,0-2.28,2.22c-1.24,1.76-2.61,3.43-3.91,5.15a8.76,8.76,0,0,0-1.74,4.45c.89,2,2.31,4,2.4,6.42a5.54,5.54,0,0,1-1,2.39,23.7,23.7,0,0,0-2.34,3.23c-3.51,2.83-5.52,6.93-8.58,10.14a.9.9,0,0,0,.05,1.41c3.12-.2,5.45-2.8,8.67-3.23s5.87-2.25,8.83-3.35c1.71-.79,3.44-1.54,5.13-2.36a6.91,6.91,0,0,1,4.75-.49c1.71,1.46,1.54,3.35,1.08,5.21a3.91,3.91,0,0,1-3.58,3.1,19,19,0,0,0-4.65,1.52,2.24,2.24,0,0,0-.23.49,4.69,4.69,0,0,0-.07,1c.22,2.58-1.11,4.11-3.26,5.29a59.42,59.42,0,0,1-7.11,2.87A10.3,10.3,0,0,0,352,118.9a55.1,55.1,0,0,1-4.28,6.38,5.47,5.47,0,0,0,1.46,8.21c1.31.86,2.87,1.22,4.11,2.16a10.67,10.67,0,0,0,4.19,1.94,3.63,3.63,0,0,1,2.62,2,5.69,5.69,0,0,0,2.11,2.4,3.79,3.79,0,0,1,1.15,1.39,5,5,0,0,0,1.61,1.78,11.22,11.22,0,0,0,5.08,2.28,36.32,36.32,0,0,1,5.56.93,5.62,5.62,0,0,0,2.61.12c3.14-.71,6.27-1.48,9.38-2.31a28,28,0,0,1,7.28-1.32,11,11,0,0,0,4.9-1.07c.78-.39,1.63-.81,1.29-2,0-1-.2-2,.47-2.92a10.89,10.89,0,0,1,8.26-4.38,49.67,49.67,0,0,1,5.24.1,3.72,3.72,0,0,1,2.26.71c1.44,2.22,2.45,2.65,4.88,2.1.53-.12,1.05-.25,1.58-.34a9.07,9.07,0,0,1,5.93.58,6.6,6.6,0,0,0,3.56.53,12.43,12.43,0,0,1,4.39.47,20,20,0,0,0,8.54.85,34.72,34.72,0,0,1,10.68.17c1.26.22,2.5.54,3.76.77a4,4,0,0,0,3.64-.71,18.76,18.76,0,0,0,2.49-2.92,1.49,1.49,0,0,0-.49-2.41c-1-.57-1.85-1.36-2.81-2s-2.23-1.34-3.6-.74a1.79,1.79,0,0,1-1.59-1.59,28.39,28.39,0,0,1-.49-3.4c0-1.3-.46-2.71.67-3.86,2-.9,3.78,1.06,5.53.18a2.93,2.93,0,0,0,2.16.6c0-.69-.56-.94-1-1.08a8.3,8.3,0,0,1-4.34-3.46,4.85,4.85,0,0,0-3.25-1.86,6.07,6.07,0,0,1-2.3-.72,10.71,10.71,0,0,0-3.93-1.5c-3.28-.65-6.79-3.91-6.41-7.26,1.61-2.62,3.89-2.78,6.39-1.17a8.83,8.83,0,0,0,3.55,1.32,15,15,0,0,1,7.1,3.13c1.81,1.41,3.16,3.32,5.16,4.49a9.92,9.92,0,0,1,3.78,4.1,6.69,6.69,0,0,0,2.72,2.89,5.46,5.46,0,0,1,2.35,2.42,6.91,6.91,0,0,0,4.68,3.83c1.21.78,2.33.28,3.45-.24a31.36,31.36,0,0,1,3.47-1.63,12.55,12.55,0,0,0,3.91-2.06,19.37,19.37,0,0,1,5.34-2.84,23.41,23.41,0,0,0,4.83-2.5,7.68,7.68,0,0,0,2.14-1.47c1.22-.88,1.88-.86,3.29.09a5.15,5.15,0,0,1-1.32,5.31,4.75,4.75,0,0,0-1.69,3.34,17.33,17.33,0,0,0-3.69,4.5,8.46,8.46,0,0,1-2.91,3,18.88,18.88,0,0,0-3.48,2.42,3.76,3.76,0,0,1-2.76,1.06,2.84,2.84,0,0,0-2.7,1.48,5,5,0,0,1-2.89,2.08,9.87,9.87,0,0,0-3.55,1.88,1.64,1.64,0,0,0-.65,2c.32.68,1.21.87,1.46,1.67.43,3.31-.57,4.33-3.84,4s-6.45-.56-9.69-.76a11.56,11.56,0,0,0-4.59.61,16.65,16.65,0,0,1-10.15.3,29.47,29.47,0,0,0-7.16-1.18,13.84,13.84,0,0,1-8.23-2.39,6.59,6.59,0,0,0-1.11-.54,24.66,24.66,0,0,0-4.15.79,29,29,0,0,1-11,2.22c-2.09,0-4.18.08-6.27-.09-1.22-.1-2.55-.17-3.46.77-2.05,2.11-3.67,4.46-3.82,7.58a21.19,21.19,0,0,0,1.66,8.88,7.81,7.81,0,0,1,.5,4.7,2.17,2.17,0,0,1-2.58-.8c-1-1-1.89-2.11-2.83-3.17-1.61-1.8-3.41-3.43-5.88-3.67a34.55,34.55,0,0,0-9.07.26c-3.12.53-6.21,1.42-9.39,1.39-2.77,0-5.53.14-8.29.21a21,21,0,0,0-6.13,1.2,38.39,38.39,0,0,0-8.07,4.14,4.32,4.32,0,0,1-4.09.56,2.36,2.36,0,0,1-.65-2c0-3.48,1.51-6.39,3.5-9.08a3.06,3.06,0,0,1,2.49-1.17c.61,0,1.22,0,1.82-.06.85-.09,1.75-.17,2.22-1.17a5.93,5.93,0,0,0-3.67-2,15,15,0,0,1-7.75-4.89,9.7,9.7,0,0,0-5.52-3.11,24.38,24.38,0,0,1-8.83-3.37,4.42,4.42,0,0,0-5.75.25,6,6,0,0,1-4.75,1.26c-.6-.09-1.22,0-1.81-.12a3.91,3.91,0,0,0-3.48,1.23,15.92,15.92,0,0,1-1.31,1.26,10.07,10.07,0,0,0-3.62,6.14c-1.29,5.52-.45,11,.27,16.49.39,2.94,1.6,5.72,1.8,8.71a22.17,22.17,0,0,1-.92,6,8.27,8.27,0,0,1-3.77,4.56c-1,.65-2.26.25-3.24.7a2.47,2.47,0,0,0-.69,1.72,5.61,5.61,0,0,1-1.24,2.5,3.14,3.14,0,0,1-3.53,1.32,3.41,3.41,0,0,1-2.43-2.95,11.47,11.47,0,0,1,.29-4.6,25.17,25.17,0,0,0,.83-8c0-.67.13-1.35.14-2,0-4.85-1.07-9.21-5.06-12.45a4.74,4.74,0,0,0-3.1-1.28c-3.55,0-6.69-2-10.22-2a.44.44,0,0,1-.19-.06c-2.95-1.55-5.89-1.82-8.85,0a.79.79,0,0,1-.39.12c-2,0-3.38,1.18-4.66,2.52a4.56,4.56,0,0,1-3.26,1.37,11.87,11.87,0,0,0-2.92,0,5.5,5.5,0,0,0-1.74,2.07c-.5.88-1,1.76-1.55,2.61a7.44,7.44,0,0,1-5.21,3.48,14.47,14.47,0,0,0-2.7.84c-2.44.91-3,1.91-2.68,4.49a4.73,4.73,0,0,0,1.2,2.74c2,2.1,3.67,4.47,5.48,6.73a11.59,11.59,0,0,0,6.76,4.53A12.39,12.39,0,0,1,270.24,196.49Z" transform="translate(-29.23)"/>
    <path class="a" d="M248.78,392.16c0,1.08,0,2.16,0,3.24a1.91,1.91,0,0,0,1.07,1.82c.78.36,1.71.36,2.3,1.15s.53,1.52,1,2.18a10.14,10.14,0,0,0,5.38-3.6,7.72,7.72,0,0,1,1.3-1.79,2.88,2.88,0,0,1,3.17-.74c1.2.55,1.44,1.7,1.35,2.92a10.27,10.27,0,0,1-5.2,8.43,16.39,16.39,0,0,0-5,4.67A8,8,0,0,0,253,412.8a2.8,2.8,0,0,0,1,3.41,2.66,2.66,0,0,1,.77.65c1.89,3.11,5,2.54,7.8,2.42a4.84,4.84,0,0,0,3.46-2.26,7,7,0,0,1,3.77-2.91c.24-.22.39-.29.43-.4.85-2.29,2.65-3.06,4.92-3.14a11.44,11.44,0,0,1,4.41.25,2.74,2.74,0,0,0,2.33-.3c1.3-.71,2.61-1.4,3.91-2.13,3.2-1.8,4.5-4.7,4.65-8.23,0-.94,0-1.89.07-2.83a6,6,0,0,1,2.6-4.6,25.23,25.23,0,0,1,2.72-1.75c1-.52,2-1,3-.19a2.68,2.68,0,0,1,.83,2.76c-.08.74-.21,1.47-.34,2.2a15.81,15.81,0,0,0-.15,5,8.45,8.45,0,0,1-1.4,5.78,9.83,9.83,0,0,0-1.14,1.91,11.89,11.89,0,0,1-3.16,4.87,3.76,3.76,0,0,0-1.11,2.94c0,1.69,0,3.38,0,5.06.08,2.1,1.15,2.75,3.08,2a10.06,10.06,0,0,0,3.75-2.7c3.06-3.46,6.87-6.05,10.26-9.13a8.16,8.16,0,0,1,3.79-1.85,6.59,6.59,0,0,0,5-4.58c1-2.65,2.25-5.2,3.4-7.79a37,37,0,0,0,2.39-10c.15-1.07.34-2.13.55-3.19a6.39,6.39,0,0,1,1.31-2.71c1.64-2.1,3.76-2.09,5.36,0a9,9,0,0,0,.87,1.12,3.71,3.71,0,0,1,1,3.89c-.1.38-.25.79.1,1.18.73,0,1-.59,1.31-1.06a7.85,7.85,0,0,1,1.94-2c1.16-.8,2.4-1.35,3.77-.62a4.36,4.36,0,0,1,1.74,4.26,7.83,7.83,0,0,1-.92,2.24c-1.68,2.92-3.33,5.86-5,8.77a56.67,56.67,0,0,0-3.46,7.31c-.78,1.9-.38,3.23,1,4.11a2.29,2.29,0,0,0,3.14-.15,10.9,10.9,0,0,1,2.94-1.73,5.68,5.68,0,0,0,3.43-4,11.79,11.79,0,0,1,1.05-2.84,6.21,6.21,0,0,1,3.77-3.16,9.88,9.88,0,0,0,5.92-4.6c1.44-2.43,2.94-4.82,4.36-7.14-.71-1.66-1.2-2-2.59-1.75-.53.09-1,.31-1.56.43-2.27.53-3.64-.21-4.41-2.4-.36-1-.53-2.12-1.81-2.61-1.23.07-2.54.73-3.86,0s-1.11-2.3-2.11-3c-1.08-.31-2.14.33-3.07-.34a3.13,3.13,0,0,1,2.13-4.79,2,2,0,0,1,.8-.06,13.22,13.22,0,0,0,7.24-.92c2.31-.81,4.72-.12,6.9.74a10.11,10.11,0,0,1,5.19,4,4.19,4.19,0,0,0,.37.48c1.8,2.18,3.21,2.23,5.19.22a8.69,8.69,0,0,0,1.26-1.82,9.07,9.07,0,0,1,7.58-4.69,101.55,101.55,0,0,1,10.91-.56,43.32,43.32,0,0,1,5.82.66,3.36,3.36,0,0,1,2.67,1.92,5.4,5.4,0,0,0,4.6,3.17c1.49.16,2.25,1,2.28,2.13a2.91,2.91,0,0,1-2.35,2.67,6.46,6.46,0,0,1-3.2-.29,7.91,7.91,0,0,0-4.38-.26,18.15,18.15,0,0,1-4.64.14c-3.5-.17-6,1.53-8.25,4s-3.79,5.57-5.72,8.33c-.5.72-.95,1.48-1.51,2.15a6,6,0,0,0-1.48,2.84c-.64,3.73-3.21,6-6,8a47,47,0,0,0-7,5.84,23.84,23.84,0,0,0-3.55,5.15.87.87,0,0,0,0,1,2.86,2.86,0,0,0,2.3-.86,30.53,30.53,0,0,1,6.83-3.49,81.17,81.17,0,0,0,8.47-4.73,25.73,25.73,0,0,1,4-2,9.29,9.29,0,0,1,5.17-.35c.27,0,.54,0,.8.07a11.65,11.65,0,0,0,8.57-2.16,7.5,7.5,0,0,1,3.46-1.55,1.7,1.7,0,0,1,2.16,1.76,9.74,9.74,0,0,1-.67,4.54,77.4,77.4,0,0,1-3.79,7.54c-1.71,2.19-3.46,4.26-6.33,5.07A9.85,9.85,0,0,0,382,422.9c-2.58,1.84-5.11,3.76-7.72,5.56a19.33,19.33,0,0,1-10,3.62,5.46,5.46,0,0,0-1.4.18c-5.2,1.75-10.24.87-15.25-.84a13.67,13.67,0,0,1-6.87-4.73,13.4,13.4,0,0,0-6.45-5A7.43,7.43,0,0,0,332,421a14,14,0,0,1-6.15-1.79,6.41,6.41,0,0,0-4.33-.54,1,1,0,0,0-.86.76c.09.64.54.9,1.08,1.06a10.23,10.23,0,0,0,2.79.44,5,5,0,0,1,4,2.08,27.63,27.63,0,0,1,1.81,2.68,2,2,0,0,1-1.19,3.18,3.51,3.51,0,0,1-3.13-.3,5.17,5.17,0,0,0-4.63-.5c-2.32.71-4.37-.14-6.27-1.47a6.9,6.9,0,0,0-3.1-1.66c-1.22.3-2,1.25-3.16,1.52s-2.11-.43-3.34-.11c0,2.61,2.75,2.3,3.52,3.63a4.45,4.45,0,0,0,2,.27,4.79,4.79,0,0,1,3.85,1.44,2.81,2.81,0,0,0,2,.81,4.51,4.51,0,0,1,1.59.18c1.81.86,3.5,1.89,5.65,1.85a2.09,2.09,0,0,1,.37,4c-1.52.54-2.8,1.62-4.45,1.84a11.34,11.34,0,0,0-6.78-1.58,15.76,15.76,0,0,1-5.43-.46,8.16,8.16,0,0,1-4.2-2.3,6.2,6.2,0,0,0-2-1.38,16.47,16.47,0,0,1-3.57-2.29,4.55,4.55,0,0,0-3.94-1.15,8.6,8.6,0,0,1-3.61-.13,7.65,7.65,0,0,0-5.11.67c-1.29.59-2.56,1.22-3.84,1.81a9,9,0,0,1-3.53.82,3.8,3.8,0,0,0-1.21.11,8.38,8.38,0,0,1-5.71.34c-.88-.27-1.84.29-2.73.6a4.38,4.38,0,0,1-3.17,0c-3.07-1.23-6.21-2.32-8.43-5a6.5,6.5,0,0,0-1.28-1c-.27-.2-.66-.3-.83-.56-1.47-2.16-3.5-3.83-5-5.88a4.19,4.19,0,0,0-2.68-1.91,29,29,0,0,1-5.49-1.35,5.88,5.88,0,0,0-3.4,0,27.19,27.19,0,0,1-7.63.73,5.51,5.51,0,0,0-4.61,1.64,7.13,7.13,0,0,1-2,1.38,2.48,2.48,0,0,1-3.84-2,4.85,4.85,0,0,0-.4-2.17,7.07,7.07,0,0,0-4.77-1.34,12.14,12.14,0,0,1-7.07-1.16,10.4,10.4,0,0,0-3.13-.82,11,11,0,0,1-7.82-4.54,6.09,6.09,0,0,0-2.43-2.1,6.51,6.51,0,0,1-2.61-2.2,12,12,0,0,0-5.44-4c-1.27-1.5-.76-3.08-.06-4.55a25.53,25.53,0,0,1,2.88-4.63,31.14,31.14,0,0,0,4.73-7.49,10.18,10.18,0,0,1,2-3c2.28-2.56,4.45-5.23,6.71-7.81s3.29-5.37,1.86-8.73a3.71,3.71,0,0,1-.29-1.78c.51-4.65.3-9.45,3.27-13.54a32.31,32.31,0,0,1,3.35-4c3-2.92,4-6.47,4-10.46,0-.81-.05-1.62-.08-2.42a3.7,3.7,0,0,0,0-2c-.46-2.83-1.05-5.66.06-8.48a4.75,4.75,0,0,1,4-1.34,19.25,19.25,0,0,1,4.91,7.54,1.26,1.26,0,0,0,.09.18,6,6,0,0,0,4.95,3.36,10.36,10.36,0,0,1,2.39.37,5.66,5.66,0,0,0,5.35-1,35.34,35.34,0,0,1,6.89-3.79,10.44,10.44,0,0,0,1.9-1.14,2.3,2.3,0,0,0,1.12-2.18c-.22-.79-.84-1-1.46-1.35-2.1-1-2.69-2.19-2.46-4.56.3-3-1.1-4.6-4.15-4.51-1.28,0-2.55.15-3.83.28a5.23,5.23,0,0,1-4.34-1.2,9.61,9.61,0,0,1,.11-3,4.47,4.47,0,0,1,3.18-2.18,2.91,2.91,0,0,0,2.52-2.27,4.45,4.45,0,0,1,2.67-3.05c.47-.07.93-.13,1.4-.22a9,9,0,0,1,6.78,1.26,14.94,14.94,0,0,1,3.68,3.12,13.07,13.07,0,0,0,4.65,3.82c1.42.64,1.92.46,2.84-.91-.25-1.73-1.67-2.66-2.89-3.67a6,6,0,0,1-2.29-5.14c0-.88,0-1.76.15-2.62a5.92,5.92,0,0,0-.45-3.36,10.74,10.74,0,0,1-.22-3.21,4.62,4.62,0,0,1,1.65-3.34,13.39,13.39,0,0,0,5-8.29,10.51,10.51,0,0,1,3.46-5.81,5.7,5.7,0,0,1,3.38-1.66,3.51,3.51,0,0,1,2.77,3.85,7.27,7.27,0,0,1-.8,2.91c-.59,1.14-1.17,2.28-1.72,3.44a9.49,9.49,0,0,0-1.06,4.89,16.26,16.26,0,0,1-.34,3.62,4.55,4.55,0,0,0,1.49,4.56,5.57,5.57,0,0,1,1.75,3.33c.53,2.3,1.65,2.73,3.64,1.44a11.25,11.25,0,0,1,2.7-1.34,4.46,4.46,0,0,0,2.83-2.45,20,20,0,0,1,2.32-3.79,6.77,6.77,0,0,0,1.47-4.72,11,11,0,0,1,1.52-7,5.79,5.79,0,0,0,.54-3.35,13.84,13.84,0,0,1,.29-4.42c.75-2.42,2.57-3.71,4.84-3.32a4.4,4.4,0,0,1,3.6,3.43,5.73,5.73,0,0,1-.45,4.7,8.68,8.68,0,0,0-1.11,4.45c-.14,3.71-.28,7.43-1.79,10.91-1.16,2.67-2.38,5.29-4.73,7.19a6.38,6.38,0,0,0-1.65,2.52,13.27,13.27,0,0,1-5.23,6.24,11.26,11.26,0,0,0-5,6.42c-.92,3-3,5.43-4,8.34-.16.44-.38.86-.58,1.28a2.92,2.92,0,0,1-.5.63,7.6,7.6,0,0,0-2.72,3.89,8.24,8.24,0,0,1-3.29,4A98.18,98.18,0,0,1,247.21,344c-1.57.76-3.32,1.2-4.82,2.08-4.66,2.75-9.77,3.25-15,3.31a7,7,0,0,0-2.77.49,2,2,0,0,0-1,3,3.15,3.15,0,0,0,4.16,1.44c1.53-.53,3-1.17,4.49-1.83a10,10,0,0,1,5.7-1,11.27,11.27,0,0,0,5.16-.5,11.62,11.62,0,0,1,3.93-.87,7.39,7.39,0,0,0,5.22-1.8,6.31,6.31,0,0,1,1.2-.75,4.53,4.53,0,0,1,6.26,1.7v2.86a9,9,0,0,1-3.61,3.68c-3,2.09-6.46,2.16-9.81,2.77a12.72,12.72,0,0,0-6,2.23,10.69,10.69,0,0,0-2.46,3.43,12.54,12.54,0,0,1-9.44,6.57c-2.46.41-4.55,1.65-6.75,2.63a7.09,7.09,0,0,0-2.22,1.73A38.9,38.9,0,0,0,212,386.42c-.66,1.55-1.36,3.09-2.14,4.58-1.3,2.51-3,4.63-5.8,5.63a6.81,6.81,0,0,0-2.54,1.51,1.46,1.46,0,0,0,.6,1.91,10.27,10.27,0,0,0,3.9,0c4.52-.55,8.67.09,12.2,3.39a12.83,12.83,0,0,0,5,2.49,6,6,0,0,0,4.51.08c1.29-.37,2.6-.66,3.92-.93,3.93-.8,6.95.66,9.36,3.69.4.5.64,1.22,1.54,1.17a1.56,1.56,0,0,0,.4-1.81,8.16,8.16,0,0,1-.16-4.94,1.92,1.92,0,0,0-1-2.22c-.39-.25-.85-.39-1.26-.62a2.31,2.31,0,0,1-1.33-3,19.85,19.85,0,0,1,1-2.41c.45-.74.88-1.49,1.36-2.21C243.42,390,246.58,389.73,248.78,392.16Z" transform="translate(-29.23)"/>
    <path class="a" d="M162.81,239.74a16.22,16.22,0,0,0-4.79,6.63,5.26,5.26,0,0,1-4.16,3.18,5.12,5.12,0,0,0-4,6.09,11.07,11.07,0,0,0,5.25-.72,38.43,38.43,0,0,1,9.85-2.91,6.9,6.9,0,0,0,1.76-.44c3.85-1.79,7.84-3.25,11.63-5.19a66.31,66.31,0,0,1,8.13-3.62,13.08,13.08,0,0,1,7.74-.07c1.15,3.56-.12,4.64-2.55,5.62a18.42,18.42,0,0,0-4.78,2.6,7,7,0,0,1-2.59,1.11,2.84,2.84,0,0,0-2.3,2.22c1.75,1.51,4.06,1.11,5.89,1.79,2.94-1.35,3.29-1.39,5.12-.55a4.28,4.28,0,0,1,.06,4,32.63,32.63,0,0,0-2.12,5.67,6.7,6.7,0,0,1-8.52,4.13,14.88,14.88,0,0,0-5.57-.68,7.7,7.7,0,0,1-4.73-1.46c-1.76-1.16-3.28-2.59-4.94-3.87-4.72-3.64-9.76-3.75-15-1.44a19.37,19.37,0,0,1-4,1.52,5.6,5.6,0,0,0-3.11,1.8,12.77,12.77,0,0,1-6.59,3.75,3.63,3.63,0,0,0-2.87,2.5,7.42,7.42,0,0,1-3.14,3.85,4.5,4.5,0,0,0-1.91,1.71c.66,1.53.66,1.53,3.08,1.94,1.45,1.42.68,3.33.81,5.16a8.75,8.75,0,0,1,1.64,3.1c.47,1.91,2.33,2.08,3.86,2.41a14.36,14.36,0,0,0,3.43.14,7.06,7.06,0,0,1,5.29,1.55,3,3,0,0,0,2.23.82,8.63,8.63,0,0,1,6.08,1.75,1.1,1.1,0,0,0,1,.19.88.88,0,0,0,.54-.5,3,3,0,0,1,3.55-1.67,6.56,6.56,0,0,0,5-1,5.42,5.42,0,0,1,5.61-.15,6.31,6.31,0,0,0,4,1,1.59,1.59,0,0,1,1.37.46,2.29,2.29,0,0,1,.08,2.31c-.75,1.23-2.76,1.42-2.36,3.37.23.16.43.4.67.45,2.83.55,5.07,2.51,7.8,3.29a14.34,14.34,0,0,0,4.23.21,11.6,11.6,0,0,1,3.8.46,3.53,3.53,0,0,1,2.21,5c-.92,1.73-1.66,3.54-2.55,5.28a6.63,6.63,0,0,1-5.61,3.77,4.75,4.75,0,0,0-2.34.54c-2.66,1.79-5.52,1.48-8.38.76a56.47,56.47,0,0,0-10.29-2.05,10.65,10.65,0,0,0-9.94,4.64,9.74,9.74,0,0,0-1.56,6,4.4,4.4,0,0,0,2.12,3.51,15.75,15.75,0,0,1,3.68,3.14,7,7,0,0,1,1.12,1.67c1.72,4.76,1.69,9.39-1.33,13.69a8,8,0,0,1-4.42,3,15.34,15.34,0,0,1-4.41.52c-2.83,0-4.45-1.43-5-4.28a26.85,26.85,0,0,1,.1-9.86,25.8,25.8,0,0,0,.62-4.2c0-.81.1-1.65-.86-2.22a3.18,3.18,0,0,0-3,1.48,13.37,13.37,0,0,0-1,1.73,5.64,5.64,0,0,1-2.5,2.56c-2.82,1.27-3.72,3.52-3.29,6.47.15,1,.24,2,.28,3a7.2,7.2,0,0,1-.85,4.31,7,7,0,0,0-1,4.64,4.53,4.53,0,0,1-1.56,4.37c-.21.16-.42.46-.64.47-2.19.09-4.15,1.52-6.33,1.27-2.22-1.6-2.08-3.77-1.75-5.94a8.21,8.21,0,0,1,1.28-3.18,2.87,2.87,0,0,0,0-3.23c-1.63-3-1.35-5,.93-7.49a11.43,11.43,0,0,0,2.8-5.09,13.31,13.31,0,0,1,3.58-6c3.13-3.25,6.56-6.21,9.63-9.51,2.7-2.89,5.45-5.82,6.58-9.82a12.23,12.23,0,0,0,.26-6.39,4,4,0,0,0-4-3.37,19.15,19.15,0,0,0-3.23-.19,6.56,6.56,0,0,1-5.35-1.92c-2.35-2.31-6.89-2.15-9.53,0-2.2,1.8-4.27,3.73-7,4.26a3.78,3.78,0,0,0-.52,3.14,64.63,64.63,0,0,1,.13,10.71c-.06,2.53-1.72,4.35-3.05,6.26-.76,1.09-2.93,1-4.08.12a8.09,8.09,0,0,1-2.69-4.19c-.26-.8-.2-1.78-1.2-2.35a10.94,10.94,0,0,0-3.17,4,3.21,3.21,0,0,1-3.88,1.8,3,3,0,0,1-1.37-2.94,46.21,46.21,0,0,1,1.23-8.6,8.59,8.59,0,0,1,3-4.49,16,16,0,0,0,4.74-5.94,15.38,15.38,0,0,1,3.43-4.48c1.83-1.92,3.2-4.17,4.9-6.18A8.52,8.52,0,0,0,118.5,288c.79-2.07-.33-3.54-2.52-3.34a22.93,22.93,0,0,0-8.58,2.87,56.62,56.62,0,0,1-7.92,3.57,11.16,11.16,0,0,0-7.91,9.6,4.94,4.94,0,0,1-2.12,3.71,5.74,5.74,0,0,1-2.63.1,4.69,4.69,0,0,1-2.07-2.89c-.17-.51-.29-1-.48-1.55A3.08,3.08,0,0,0,81,297.9a5.87,5.87,0,0,0-3.46,1,20.21,20.21,0,0,1-9.37,3.52,4.9,4.9,0,0,0-3.81,2.4,15.3,15.3,0,0,1-6,5.57,11.4,11.4,0,0,0-3.6,3.21c-1.6,2-3.69,2.24-5.82,2.06a4,4,0,0,1-2-3.73c0-4.27,2.08-7.57,5-10.47.33-.33.74-.58,1.1-.88a1.78,1.78,0,0,0,.25-.44c0-1.1-.82-1.55-1.76-1.81s-1.85-.39-2.77-.61a5.22,5.22,0,0,1-2.27-.83,5.4,5.4,0,0,0-4.18-1.09,6.92,6.92,0,0,1-4.11-.82,4,4,0,0,0-2.54-.44,17.29,17.29,0,0,1-2.63.13c-3-.14-4.29-1.91-3.71-4.9a3.39,3.39,0,0,1,2.78-1.38,15.41,15.41,0,0,1,4,.28c4.76,1,9.51,1.93,14.41.73a13.16,13.16,0,0,1,4.64,0,53.3,53.3,0,0,0,5.86.27,5.64,5.64,0,0,0,5-2.89c.33-.51.64-1,.92-1.57a10.2,10.2,0,0,1,7.28-5.28,18.34,18.34,0,0,0,5.25-2.05c3.58-2,7.47-2.59,11.42-3,3.68-.42,7.38-.69,11-1.3a31.52,31.52,0,0,0,5-1.55c2.43-.83,5-1.25,7.39-2.07a29.28,29.28,0,0,0,9.94-6,14.91,14.91,0,0,0,4.76-6.9,8.83,8.83,0,0,1,1.45-2.88,6.62,6.62,0,0,1,3.91-2.31,3,3,0,0,1,3.26,1.48,13.94,13.94,0,0,1,.76,1.65c.3.7.65,1.34,1.64,1.41a3.81,3.81,0,0,0,2.27-2.78c.36-1.08.57-2.21.87-3.32.84-3.2,2.1-6.12,5.13-7.89a2.4,2.4,0,0,0,.76-.65,12.84,12.84,0,0,1,5.07-3.88,4.56,4.56,0,0,0,1.16-.79,10.56,10.56,0,0,1,4.34-2.48,5,5,0,0,0,2.5-.54c1.18-.38,2.37-.93,3.65-.28.78,1.45.25,2.6-.7,3.65C164.41,238.15,163.6,238.94,162.81,239.74Z" transform="translate(-29.23)"/>
    <path class="a" d="M709.75,343.52a19,19,0,0,1-3.62,4.29,15.83,15.83,0,0,0-3.09,3.94,5.37,5.37,0,0,0-.21,5.37,10.6,10.6,0,0,0,.93,1.78,4.75,4.75,0,0,1,.81,4.54,67.9,67.9,0,0,1-7.12,5.3,10.17,10.17,0,0,1-3.81,1.25c-2.53.5-3.6,1.59-3.56,4.13a24.29,24.29,0,0,1-1.34,8.54,1,1,0,0,0,.19,1.22c.68-.17.93-.81,1.18-1.4.47-1.12.85-2.27,1.33-3.39,1.18-2.74,3.27-3.14,5.37-1.08.29.28.59.55.78.73a2.86,2.86,0,0,0,1.73.24c3.07-.52,4,1.5,4.32,3.63a5.91,5.91,0,0,1-1.64,5.58,6.56,6.56,0,0,0-1.88,3.77,15.1,15.1,0,0,0,4,.5c1.67.05,2.21.56,2.22,2.18a5.61,5.61,0,0,1-.38,2.78,4.43,4.43,0,0,0-.41,2.73c.22,1.78-.68,2.89-2.47,3.33-.26.06-.6,0-.78.17-1.47,1.27-3.31,1.24-5.06,1.63s-3.06.24-4-1.37a2.32,2.32,0,0,0-.67-.75c-.82-.29-1.71-.07-2.77-.78-.85-.65-.81-2.48-2.29-3.36-.84,1.31,0,2.55-.1,3.75a10.75,10.75,0,0,1-1.28,3.63l2.17,1.94a19.76,19.76,0,0,0,3.88.22c3.59,3.14,6.76,6.89,10.25,10a17.12,17.12,0,0,1,.07,3.69c-.52,1.31-2.48,1.45-2,3.18.9,1.8,1.87,3.56,1.68,5.7-.22,2.43-1.32,3.33-3.75,2.91-1-.17-2-.4-3-.58a4.36,4.36,0,0,1-3.47-2.45,9.83,9.83,0,0,0-.23-1c-.63-1.84-1.56-3.55-2.26-5.37-.92-2.38-2.76-3.41-5.13-1.75a3.65,3.65,0,0,1-4.32.15,2.68,2.68,0,0,0-2.46-.43c-.51.6-.37,1.31-.44,2a2.69,2.69,0,0,1-2.11,2.42,5.29,5.29,0,0,1-1.78.3c-3.2-.24-5,1.47-6.17,4.2-.36.85-.88,1.67-1.78,1.78a13.93,13.93,0,0,0-3.55,1.31c-1.58.64-3.17,1.54-5,1.26-.4,0-.81.06-1.21,0-1.84-.1-2.3-.65-2.41-2.49a5.26,5.26,0,0,1,1.36-3.91,36.62,36.62,0,0,1,4.72-5,60.13,60.13,0,0,0,11.69-12.49c.62-.86,1.39-1.68,1.34-2.74a2.19,2.19,0,0,0-.88-1.46c-2.26-1.74-3-4.21-3.33-6.88a10.75,10.75,0,0,1,2.71-5.65,5.31,5.31,0,0,0,.71-1.66c.27-.69.5-1.39.78-2.07a5.6,5.6,0,0,0,0-4.69,28.78,28.78,0,0,0-3.09-5.43,14.17,14.17,0,0,1-2.88-8,1.58,1.58,0,0,0-.65-1.45c-1.08-.07-2.46.07-3.58-.89a9.31,9.31,0,0,0-5.82-2c-1.34-.07-2.69-.11-4-.21a57.94,57.94,0,0,0-10.48,0c-2.69.28-5.35.56-7.82-1.06a5.44,5.44,0,0,0-3.31-.73c-1.11.76-1.33,2-1.73,3.11a16.28,16.28,0,0,1-3.7,3.4,2.73,2.73,0,0,1-1.89.58,10.91,10.91,0,0,0-3.78.51,9.6,9.6,0,0,1-6.17-.25,15.26,15.26,0,0,0-10.09-.22,7.32,7.32,0,0,1-5.31-.49c-.48-.23-1-.43-1.47-.64s-1.06-.61-1.24-1.48a6.64,6.64,0,0,1,4.94-5.72,7.94,7.94,0,0,0,4.34-3,6.81,6.81,0,0,1,4.9-.36,12.05,12.05,0,0,0,9.36-.92,8.57,8.57,0,0,1,8.15-.32c2.1,1.23,4.05.64,5.87-.59a9.51,9.51,0,0,1,4.86-1.79,15.71,15.71,0,0,0,2.18-.43,2.72,2.72,0,0,0,1.65-1.17,21.46,21.46,0,0,1,8-.56,6.43,6.43,0,0,1,5.57,3.44,3.38,3.38,0,0,0,1.38,1.43,3.72,3.72,0,0,0,.4.11c3.25.54,6.29,1.5,8.47,4.21a2.86,2.86,0,0,0,1.74,1,6,6,0,0,1,3.86,2.72,3,3,0,0,0,1.74,1.43h2.9c.82.36,1.14,1.13,2,1.08,1.07-.52,1-1.58,1-2.58-.12-2.13.53-3.71,2.75-4.34.07,0,.1-.22.14-.34a1.26,1.26,0,0,0-.92-.71,2.37,2.37,0,0,1-1.68-2.49c0-1.82,0-3.64.18-5.44.37-3.5,3.24-5,6.41-3.51.3.14.62.23.88.33,2-.85,2.17-1,2.1-2.93a3.82,3.82,0,0,0-2.6-1.36A22.69,22.69,0,0,1,681,347c-2.5-1.26-3.35-2.8-3.07-5.54a8.61,8.61,0,0,1,1.71-4.27,4.13,4.13,0,0,1,2.64-1.73c1.39-.24,2.78-.59,4.18-.73a6.71,6.71,0,0,0,5.26-3.31,16.7,16.7,0,0,1,3.15-3.66,5.72,5.72,0,0,0,2.36-4.1,13.3,13.3,0,0,1,1.05-4.5c.61-1.56.47-2.91-1-3.91-2.21-.8-2.91-2.38-2.47-4.61a1.7,1.7,0,0,0-.29-1.52c-.54-.42-1-.18-1.51.09a9.14,9.14,0,0,0-2,1.68,19.39,19.39,0,0,1-9.24,5.52,5.37,5.37,0,0,0-3.92,3.45,9.55,9.55,0,0,1-1.41,2.67,2.57,2.57,0,0,1-4.64-.68,7.28,7.28,0,0,1,.29-5.88c.61-.47,1.53-.63,1.66-1.66,0-.72-.56-1.14-1.08-1.57a8.69,8.69,0,0,0-7.38-1.86c-1.58.3-3.14.84-4.78.5a9,9,0,0,0-3-.11,5.22,5.22,0,0,1-4.46-1.42,2.91,2.91,0,0,0-1.89-1c-.69-.28-1.38-.54-2.05-.84a3.39,3.39,0,0,1-2.09-3.58,2.6,2.6,0,0,1,2.14-2.81,20.68,20.68,0,0,0,6.58-2.47,2.88,2.88,0,0,1,2.54-.15,14.46,14.46,0,0,0,7.37.52,2.8,2.8,0,0,1,2.51.36,2.9,2.9,0,0,0,1.35,1.76c1.27.14,2.86-.22,4.26.49a3.61,3.61,0,0,0,1-.38,4.41,4.41,0,0,1,4.59-.52,5.23,5.23,0,0,0,6.21-1.52,5.3,5.3,0,0,1,4.1-1.91,82.87,82.87,0,0,0,9-.82,4.18,4.18,0,0,1,2.21.2,12.53,12.53,0,0,0,3.52,2.64,19.2,19.2,0,0,1,1.79,1.31,7.73,7.73,0,0,0,2.42,4.78,7.71,7.71,0,0,1,2.7,5.88c.1,1.92.17,1.92,1.79,2.68,2.87-2.44,6.53-3.8,9.62-6.09a14.14,14.14,0,0,1,7.84-2.85,28.72,28.72,0,0,0,13.82-4.7,13.1,13.1,0,0,1,5-2,5.31,5.31,0,0,0,2.56-1.15,10,10,0,0,1,6.18-2.68,2.69,2.69,0,0,0,1.49-.6,14.2,14.2,0,0,1,6.94-2.58,10.49,10.49,0,0,0,5.19-2.08c2.8-1.31,4.31-3.78,5.67-6.36a25,25,0,0,1,2.36-4c1.18-1.49,2.5-2.06,3.62-1.61s1.53,1.74,1.22,3.73a7.9,7.9,0,0,1-.31,1.38c-1,2.8-1.92,5.6-3,8.37a8,8,0,0,1-3.31,4.21,6.09,6.09,0,0,0-1.88,2.08,7.9,7.9,0,0,1-6,3.63,32.3,32.3,0,0,0-11.09,3.59,6.09,6.09,0,0,0-1.8,1.28,26.35,26.35,0,0,0-3.24,2.73c-3.51,4-8.07,6-13.18,6.87a34.39,34.39,0,0,0-12.2,4.59,29.36,29.36,0,0,1-6,2.92c-1.53.51-3,1.23-4.47,1.86a6.39,6.39,0,0,0-3.79,4.68,21,21,0,0,1-1.82,4.91,6.26,6.26,0,0,0-.74,2.08A27,27,0,0,1,709.75,343.52Z" transform="translate(-29.23)"/>
    <path class="a" d="M627.93,45c-1.12-3.85,1.5-5.35,4.12-5.7a7.37,7.37,0,0,1,7.7,4.9c.16.51.27,1,.4,1.56,0,1.53,1.13,2.56,1.62,3.86a9.64,9.64,0,0,0,5.29,5.54,6.69,6.69,0,0,1,3.9,5.08,7,7,0,0,0,1.21,3.39,35.21,35.21,0,0,0,5.51,5.19c1.87,1.33,3.88.31,4.45-1.94a17,17,0,0,1,2.17-4.08,1.64,1.64,0,0,1,1.56-.77,2.53,2.53,0,0,1,1.86,1.42,32.66,32.66,0,0,0,4.43,6.2c.81,2.8,1.05,5.57-.59,8.19-.18.29-.31.6-.47.9a2.5,2.5,0,0,0,.4,3.32,6.84,6.84,0,0,1,1.86,4.17c.39,2.66.84,3.2,3.43,3.77,2,.45,3.57,1.2,4.5,3.27a3.58,3.58,0,0,0,5.93.83,7.44,7.44,0,0,1,6.17-3c3.9-.09,6.42,2,6.22,6a20.7,20.7,0,0,0,2,8.58c.92.42,1.88.92,2.89,1.28,1.67.6,1.89,1.88,1.84,3.42a3,3,0,0,1-2.22,3c-.32.1-.63.22-.8.29-.87.78-.56,1.94-1.42,2.77a9.16,9.16,0,0,0-4,1.38.92.92,0,0,1-.39.09c-1.93.33-5.38-1.64-6.1-3.51-.24-.62-.3-1.34-1-1.7a1.94,1.94,0,0,0-1.7.34,4.77,4.77,0,0,1-2.1.7,3.44,3.44,0,0,0-3,1.74,5.92,5.92,0,0,1-4.79,3.09c-1.14.73-1,1.61-.64,2.56a9.33,9.33,0,0,1,1,2.86,6.29,6.29,0,0,1-.44,3.37c-.17.34-.45.71-.08,1.13.81.08,1.14-.58,1.56-1.07,1.39-1.66,3-2.66,5.3-2,1.06.31,2.24-.57,3.71.3,1.77,1.66.9,5,3.07,6.85.82.06,1.08-.55,1.46-1a28,28,0,0,1,3.53-3.88,5.59,5.59,0,0,1,5.29-1.26,4.77,4.77,0,0,0,5.38-1.79,8,8,0,0,1,3.77-2.62,4.09,4.09,0,0,0,1.64-1.14,7.44,7.44,0,0,1,1.55-1.28,9.92,9.92,0,0,0,3.09-2.86,22.88,22.88,0,0,1,1.62-1.81,4.85,4.85,0,0,1,4.07-1.38,2.44,2.44,0,0,1,2.25,1.46,7.24,7.24,0,0,0,1.34,2.23c1.8.78,4,1.27,5.31,3.1,2.73-.53,5.32-1.13,7.16,1.46.51,3,.09,4-2.43,5.57a17.7,17.7,0,0,1-6.88,2.78,13.6,13.6,0,0,0-3.84,1.23,15.27,15.27,0,0,1-6.82,1.61,12.23,12.23,0,0,0-6.21,1.49,9.6,9.6,0,0,1-5.82,1.39,2.8,2.8,0,0,0-2.15,1,6.27,6.27,0,0,1-4.44,1.66c-3.47-.07-6.22,1.48-8.68,3.75-1.24,1.14-2.51,2.26-3.79,3.36a6.35,6.35,0,0,1-3.9,1.47,15.66,15.66,0,0,1-8.22-1.66,7.6,7.6,0,0,0-6.21-.48,47.58,47.58,0,0,1-11.08,2.16c-1.23-.63-2.68-.27-3.92-.89-2-1-4.31-1-6.27-2.21a5,5,0,0,0-2.79-.32c-.67,0-1.35.06-2,.13a8.44,8.44,0,0,1-8.59-4.16c-.14-.23-.32-.44-.46-.67a7.1,7.1,0,0,0-4.12-3.07,4.81,4.81,0,0,1-2.37-1,5.53,5.53,0,0,1,3.5-5.24,4.57,4.57,0,0,0,2.31-1.18c1.5-1.89,2-4.41,3.91-6.09.26-.23.29-.73.38-1-.06-1-.75-1.58-1-2.37a10.29,10.29,0,0,1,0-2.2,3.35,3.35,0,0,0-1.53-3.84,2.36,2.36,0,0,1-1.1-1.63c-.23-1.68-.5-3.43.47-4.93a9,9,0,0,1,4.28-3.53,6.91,6.91,0,0,0,3.36-2.39c1.44-2,2.68-2.24,4.63-.86a6.62,6.62,0,0,0,4.15,1.26,8.26,8.26,0,0,1,2.8.32,31.78,31.78,0,0,1,5.88,3.31.39.39,0,0,1,.12.16c1,2,2.6,2.56,4.7,2.24a2.83,2.83,0,0,1,3.13,1.73,3,3,0,0,0,1.48,1.55c2.6-.58,4.78-2.51,7.36-3.72a1.54,1.54,0,0,0-2.25-1.05,3.38,3.38,0,0,1-4-1,4.49,4.49,0,0,0-3.93-1.66c-1.44.13-2-.43-2.57-1.79-.26-.67-.22-1.5-1.1-2l-1.77-.17a4,4,0,0,1-2.07-3.55c-.06-.88,0-1.85-.75-2.44-1.57-1.28-1.67-3-1.56-4.77,0-.61.1-1.21.15-1.82a2.26,2.26,0,0,0-1.17-2.39,4,4,0,0,1-2.16-3.41,5.68,5.68,0,0,0-6.88-4.89,16.92,16.92,0,0,1-4.62.25,7.17,7.17,0,0,0-4.12.74,11,11,0,0,1-5.83,1.35,6.07,6.07,0,0,0-5.29,2.46,18.82,18.82,0,0,1-1.73,2c-2.75,2.72-5.66,5.2-9.54,6.21a13.23,13.23,0,0,0-2.61,1.09,8.22,8.22,0,0,0-3.83,9,14.78,14.78,0,0,1-.59,9.51,3.22,3.22,0,0,1-2.75.39,3.66,3.66,0,0,1-1.52-1.76c-1.3-2.36-1-4.83-.48-7.29a7.14,7.14,0,0,0,.09-3.58,7.85,7.85,0,0,1-.18-1.8c-.12-3.1,1.11-5.8,2.61-8.38a16.4,16.4,0,0,0,2.32-6.2,7.05,7.05,0,0,1,3.12-5.2,15.31,15.31,0,0,0,4.12-4.39,7.29,7.29,0,0,1,4.51-3.16,4.18,4.18,0,0,0,2-.9,9.32,9.32,0,0,1,3.08-1.91A3.91,3.91,0,0,0,628.94,60a3.37,3.37,0,0,1,1.55-2.9,2.74,2.74,0,0,0,1.37-2.36,8.29,8.29,0,0,1-2.19-5.31A8.59,8.59,0,0,0,627.93,45Zm36.64,72.79a1.13,1.13,0,0,0-.48,0,4.42,4.42,0,0,1-4.73-.67,2.52,2.52,0,0,0-3.23.07,14.63,14.63,0,0,1,.69,3.79,2.24,2.24,0,0,0,1.7,2.06A4.67,4.67,0,0,1,661.4,126c.22.52.27,1.24,1.07,1.31.53-.18.65-.65.79-1.09a3.61,3.61,0,0,1,3.37-2.74,12,12,0,0,0,2.19-.4c.75-.22,1.56-.48,1.62-1.43a1.36,1.36,0,0,0-1.53-.49,2.68,2.68,0,0,1-3.14-1.93A2,2,0,0,0,664.57,117.82Z" transform="translate(-29.23)"/>
    <path class="a" d="M740.18,39.77a12.41,12.41,0,0,1,2.32,4.9,10.86,10.86,0,0,0,2,4.36c2.8,3.42,2.91,7.43,2.64,11.52-.08,1.21-.39,2.4-.5,3.61a5.16,5.16,0,0,0,2.5,5.17,14.44,14.44,0,0,0,5.94,2.44c2.54.33,5.06.86,7.59,1.23,2.76.4,5.31,1.53,8,2.21,2.94.75,5.68.78,8.38-.89a13.8,13.8,0,0,1,4.07-1.77,15.39,15.39,0,0,1,7.39.4,37.4,37.4,0,0,1,4,1.34,9.33,9.33,0,0,0,7.28-.13,27.8,27.8,0,0,1,3.6-1.36c1.29-.35,2.74-.76,3.8.43s.46,2.61-.11,3.81A29.25,29.25,0,0,1,805,82.77a29.11,29.11,0,0,0-4.33,7.15l1,3.82c.62.55,1.32.27,2,.27a2.57,2.57,0,0,1,2.6,1.2,2.94,2.94,0,0,1-.21,3.25c-.57.84-1.19,1.63-1.75,2.47a3.22,3.22,0,0,0-.29.85c.21.92.87,1.1,1.55,1.2A17.17,17.17,0,0,1,809.2,104a21.48,21.48,0,0,0,7.94,1.33,16.86,16.86,0,0,1,3.82.36,3.4,3.4,0,0,1,2.81,2.56,3.52,3.52,0,0,1-2.34,3.45c-2.76.85-5.35,2.29-8.33,2.4-.65,0-1.37,0-1.73.74.14.84.79.9,1.38,1a8.62,8.62,0,0,1,5.43,2.42,4.53,4.53,0,0,0,3.55,1.08c4.52-.2,8.68.71,12.12,4,2.92,2.79,6.52,4.52,10.23,6a4,4,0,0,1,2.74,4.43,4.48,4.48,0,0,1-4.15,4.28,20.86,20.86,0,0,1-10.21-.42,14.58,14.58,0,0,0-8.78-.31,5.33,5.33,0,0,1-3.56-.26,14.58,14.58,0,0,1-4.94-3.11,10.83,10.83,0,0,0-8-3.2,25.71,25.71,0,0,0-10.69,1.79,4.75,4.75,0,0,1-5.6-.9c-2.19-2-5.08-2.41-7.78-3.2a28,28,0,0,1-3.82-1.3,4,4,0,0,1-2.68-4.09c.46-1.05.9-2.11,1.38-3.15a7.29,7.29,0,0,0,.71-2.52c.18-2.38-.46-3.48-2.62-4.47-.92-.42-1.85-.81-2.76-1.25a5.47,5.47,0,0,1-3.1-4.67,19.52,19.52,0,0,1,.84-7c.22-.85.57-1.67.73-2.52a3,3,0,0,0-1.3-3.36,6.71,6.71,0,0,1-2.84-3.82c-1.07-3.3-3.59-4.55-6.74-4.9-2.21-.25-4.45,0-6.66-.41A15.94,15.94,0,0,1,750.34,84a16.93,16.93,0,0,0-4.1-1.06c-2.34-.44-4.43-1.37-5.29-3.84a15.51,15.51,0,0,0-4.88-6.6,15.9,15.9,0,0,1-4.1-6.17c-.63-1.49-1.3-3-1.86-4.48a3.73,3.73,0,0,1,.36-3.89c2.74-1.24,3.07,1.53,4.42,2.81A3.91,3.91,0,0,0,736,57.81a11.06,11.06,0,0,0-.42-3,8.66,8.66,0,0,1,.31-5.56,7.44,7.44,0,0,0,.56-3.55,10.75,10.75,0,0,1,.32-4.21C737.39,39.7,738.24,39.27,740.18,39.77Z" transform="translate(-29.23)"/>
    <path class="a" d="M659.65,181.15a16.77,16.77,0,0,0,4.41-2.83,15.74,15.74,0,0,1,6.46-3.21,11.07,11.07,0,0,0,1.93-.59c4.18-2.09,8.59-2.46,13.18-2.14a40.71,40.71,0,0,0,8.26-.5,2.83,2.83,0,0,0,1.8-.84,4.41,4.41,0,0,1,5.25-.91c1.42-1.22,3.29-1.45,4.78-2.53s2.84-.78,4.05.7c.68.83,1.3,1.71,1.95,2.57a4.94,4.94,0,0,1-.34,6.29,12.21,12.21,0,0,0-3,4.27,3.93,3.93,0,0,1-.75,1.19,17.77,17.77,0,0,0-3.77,6.12c-.65,1.85-1.91,2-3.37.84-.07-.8-.09-1.61-.21-2.41a2,2,0,0,0-1.7-2,5,5,0,0,0-2.64,1.74c-.42.43-.8,1-1.32,1.21-2.42.93-4.73,2.33-7.51,1.83a5,5,0,0,0-3.53.45,5.11,5.11,0,0,1-4.63.35,4.26,4.26,0,0,0-5.3,1.76,6.77,6.77,0,0,1-1.9,1.79,8.61,8.61,0,0,0-2.54,2.55,10.34,10.34,0,0,1-2.8,2.82,5.64,5.64,0,0,0-2.79,4c-.16,1.43.23,1.93,1.75,2.28a1.48,1.48,0,0,0,1-.69c1.32-2.41,3.61-3.69,5.81-5.09,2.07-.65,2.79-.22,3.28,1.78s-.41,3.61-1.67,5.06a36.19,36.19,0,0,1-3.32,2.61,11,11,0,0,0-2.91,2.76c-.41.58-.91,1.22-.2,2,1.32.17,2.23-.62,3.12-1.44,1.5-1.36,2.55-3.12,4.12-4.41,1.43-.37,2.81-1.07,4.36-.69,2.21,1.26,2.17,3.67,1.53,5.73-.23.75-.87,1.4-.55,2.18.2.36.45.53.71.51,1.84-.12,3.2.88,4.54,1.92a3,3,0,0,1,1.26,3.54,3.26,3.26,0,0,1-2.57,2.29c-2.58.71-5.07.17-7.59-.28-.78-.14-1.59-.46-2.29.2-.21,1.75.32,2.79,1.9,3.22a25.3,25.3,0,0,0,13.33.44,8.61,8.61,0,0,0,3.31-1.89,8,8,0,0,1,3-1.66c1.47-.41,3.08-.09,3.51.82a3.57,3.57,0,0,1-.27,3.83c-.56.75-1.26,1.4-1.88,2.11a2.64,2.64,0,0,0-.8,2.7c1.46,1.29,4.26.46,5.14,2.91a4.85,4.85,0,0,1,.17,2.16,3.5,3.5,0,0,1-2.6,3.26,6.33,6.33,0,0,1-2.18.39c-3-.13-6.07.18-8.92-1.22a13.75,13.75,0,0,0-3.73-.88,9.55,9.55,0,0,0-3.19-.36c-4.12-.21-7.8-1.36-10.42-4.83a6.17,6.17,0,0,0-2-1.61,36.44,36.44,0,0,1-4.64-2.85,17.83,17.83,0,0,0-7.15-6.67,26.82,26.82,0,0,1-4.73-3.46,5.43,5.43,0,0,1-2.15-5.56,6.83,6.83,0,0,0-1.35-5.68,7.06,7.06,0,0,1-.37-7.49,18.81,18.81,0,0,1,2.56-3.62c2.72-3.39,4.61-7.28,6.63-11.08a5.12,5.12,0,0,0,.45-1.55A8.69,8.69,0,0,1,659.65,181.15Z" transform="translate(-29.23)"/>
    <path class="a" d="M143,145.83a14.84,14.84,0,0,1,3.1,12.11c-.89,1.48-1.76,3-2.66,4.44a2.59,2.59,0,0,0-.44,2.08,8.4,8.4,0,0,0,0,3.81,11.07,11.07,0,0,1-1.29,8,5,5,0,0,0-.71,2.9,7.18,7.18,0,0,1-1.76,2.9,3.59,3.59,0,0,0-1.15,2.3,5.81,5.81,0,0,1-2.16,3.76c-.6.53-1.26,1-1.91,1.48a2.33,2.33,0,0,0-.89,3c2.74,1.41,5.9,2.7,7,6.22a11.85,11.85,0,0,1-.45,9.79,7.59,7.59,0,0,1-.73,1.21,2.5,2.5,0,0,1-4.45-.29,11.39,11.39,0,0,0-1.24-2.08c-.14-.15-.3-.27-.57-.5-2.38.21-3.78-1.42-5.13-3.16-.24-.32-.55-.59-.82-.88a6,6,0,0,0-5.79-3.3,13.5,13.5,0,0,0-4.34.68,5.69,5.69,0,0,1-3.75.41,28.5,28.5,0,0,0-6-.79,17.41,17.41,0,0,1-4.45-1.12l-.82-1.18a1.72,1.72,0,0,0-1.47-1.1,5.42,5.42,0,0,0-3.07,1.91c-1.91,1.87-3.76,3.79-5.64,5.7A21.42,21.42,0,0,0,84.68,208,6.52,6.52,0,0,1,82,209.44c-2.11.59-3,2.15-3.39,4.12,0,.2,0,.4-.08.6-.49,2.68-2.51,3.71-4.94,2.48a8.92,8.92,0,0,1-2.89-2.2A13,13,0,0,0,63,210a5.79,5.79,0,0,1-4.12-3c-1-1.74-2.29-2.56-4.34-2.06a6.69,6.69,0,0,1-2.82,0,3.09,3.09,0,0,1-2.62-2.7,2.84,2.84,0,0,1,2-2.94,12,12,0,0,1,6.19-.17,14.25,14.25,0,0,1,2.15.59,6.75,6.75,0,0,0,4.17,0,18.19,18.19,0,0,1,11,0,12.74,12.74,0,0,0,2,.44,5.67,5.67,0,0,0,6.22-3.17c.69-1.24,1.26-2.54,1.9-3.8,1.55-3.07,3.82-5.2,7.41-5.58a6.93,6.93,0,0,0,3.95-1.88,14.57,14.57,0,0,1,7.91-3.3,12.77,12.77,0,0,1,4.82-.19,6.28,6.28,0,0,1,3.56,1.78c2.1,2.51,4.77,2.8,7.71,2.38a16.09,16.09,0,0,0,5.94-1.9c2.39-1.4,2.69-3.22.9-5.34a26.17,26.17,0,0,1-3.83-4.93,13.42,13.42,0,0,1-.67-10,3.83,3.83,0,0,0-.06-2.18,2.94,2.94,0,0,1,.84-2.93c2.54-.85,3.14-.67,4.83,1.42.31.66.61,1.34.95,2,1.15,2.2,1.86,2.51,4.7,2a14.22,14.22,0,0,1,.86-4.81c1.07-2,2.24-3.89,2.37-6.26a7.29,7.29,0,0,1,1.74-3.57,8.17,8.17,0,0,0,1.81-3.72c0-.35.41-.67.63-1A2.75,2.75,0,0,1,143,145.83Z" transform="translate(-29.23)"/>
    <path class="a" d="M308.31,17.81a19,19,0,0,1-2.49,4.81,3.08,3.08,0,0,0,.94,4.42c1.28.86,2.65,1.61,4,2.35a6.18,6.18,0,0,1,2.59,2.75,4.06,4.06,0,0,1-.05,3.53,11.65,11.65,0,0,0-.93,5.13,10.17,10.17,0,0,1-.62,3.56,7.05,7.05,0,0,1-5.11,5,7.34,7.34,0,0,0-4,2.53,12.69,12.69,0,0,1-5.29,3.59,25.24,25.24,0,0,1-2.63,0,8.89,8.89,0,0,0-4.22,1,12.1,12.1,0,0,0-5.58,4,3.23,3.23,0,0,1-2.37,1,18.73,18.73,0,0,0-5.67,1.4,5.1,5.1,0,0,1-4,0c-2.34-.9-3.09-3.35-1.45-5.24a48.88,48.88,0,0,0,3.17-3.9,4.87,4.87,0,0,1,3-1.9,10.79,10.79,0,0,0,4-2,8.22,8.22,0,0,1,1.7-1.09c3-1.18,5.49-3.35,8.44-4.71,2.47-1.14,3.11-3.73,4-5.89a2.2,2.2,0,0,0-2.14-1.9,4.55,4.55,0,0,0-.88.33,5.56,5.56,0,0,1-5.58.5,7.63,7.63,0,0,0-3-.27,3,3,0,0,1-3.33-3c-.28-2.37.2-4.43,2.4-5.8a12.16,12.16,0,0,0,2.35-2.22,7.8,7.8,0,0,1,2.78-2.28,1.52,1.52,0,0,0,1-1.49c-.64-1.43-2-1.6-3.35-1.44a12.57,12.57,0,0,1-4.41-.34c-2.34-.56-3.1-2.34-1.91-4.45a12,12,0,0,1,2.12-2.44,1.32,1.32,0,0,0,.46-1c0-.69-.59-.88-1.21-1a10,10,0,0,0-4.42.07,19.54,19.54,0,0,1-6.63-.22,8.39,8.39,0,0,0-6.94,2c-.36.3-.68.66-1,1a3.2,3.2,0,0,1-4.08.4c-.41-.23-.75-.58-1.36-.52-1,.3-1.24,1.25-1.57,2.13s-.5,1.54-.78,2.3a3,3,0,0,1-1.6,1.74,18.18,18.18,0,0,0-6.39,4.8,5.38,5.38,0,0,1-.88.84,2.94,2.94,0,0,1-3.25.3,2.15,2.15,0,0,1-1-2.83c1-2.56,2.18-5,3.37-7.53.29-.6,1-.85,1.63-1.15s1.47-.72,1.63-1.67c-.18-1.06-1-1.08-1.83-1.19-2.11-.28-2.46-.68-2.66-3.08a3.65,3.65,0,0,1,3-1.17,5.73,5.73,0,0,0,3.42-1,3.57,3.57,0,0,1,3.83-.24,4.08,4.08,0,0,0,3.15.11,21.73,21.73,0,0,0,5.1-2.44c1.1-.65,2.12-1.45,3.52-1.34a1.83,1.83,0,0,0,.93-.34A11.12,11.12,0,0,1,273,.71a70.2,70.2,0,0,1,8.65.8,18.67,18.67,0,0,0,4,.09,3.1,3.1,0,0,1,3.17,1.77c1.11,2.72,3.41,3.75,5.92,4.43a14,14,0,0,1,5.9,3,8.47,8.47,0,0,0,3,1.26,7.45,7.45,0,0,1,3.43,2A5,5,0,0,1,308.31,17.81Z" transform="translate(-29.23)"/>
    <path class="a" d="M572.87,329.77a5.31,5.31,0,0,1-2.47,2.8c-2,1.13-2.44,2.69-1.38,4.76a11.64,11.64,0,0,0,1.11,1.68,5,5,0,0,1,.52,5.87c-1.41,2.43-.85,5-.84,7.49a2.22,2.22,0,0,0,.45,1.11,4.81,4.81,0,0,1,.31,4.45,13.08,13.08,0,0,0-.82,4.34,19.85,19.85,0,0,1-.64,4.18,3.4,3.4,0,0,1-3.75,3c-1.36,1.76-3.05,2.83-5.15,1.94a3.6,3.6,0,0,0-1.46,1.7c-1.16,1.83-2.12,2-3.7.53a2.66,2.66,0,0,0-1.73-.86c-.63.63-.23,1.37-.15,2.06.14,1.3-.08,2.42-1.42,3a6.67,6.67,0,0,0-3.57.4,10.7,10.7,0,0,1-4.4.5c-1.73-.18-2.45-1-2.56-2.79a5.47,5.47,0,0,1,1.63-4.21c2-2.13,3.92-4.28,5.87-6.42a4.92,4.92,0,0,0,.75-1,32.85,32.85,0,0,1,2.72-4.27,1.47,1.47,0,0,0-2.21.28,9.5,9.5,0,0,1-3.68,2.76,3.85,3.85,0,0,0-1.34,1.2,3.17,3.17,0,0,1-4.06.93c-.16-.22-.47-.47-.52-.77-.35-2.17-1.38-4.23-1.16-6.5a3.17,3.17,0,0,0-.24-2,5.72,5.72,0,0,1-.34-4.14,6.84,6.84,0,0,0-.39-4.14,6.3,6.3,0,0,1,1.21-6.46,24.26,24.26,0,0,0,3.69-7.38,8.34,8.34,0,0,1,3-4.23,7.72,7.72,0,0,0,2.52-2.85,6.54,6.54,0,0,0-1.5-7.61c-1.41-1.45-3-2.74-4.35-4.23a9.7,9.7,0,0,1-2.67-7.19,5,5,0,0,1,2.58-4.5c.75-.44,1.59-.75,2.35-1.18a3.26,3.26,0,0,0,1.82-3.82,2.32,2.32,0,0,0-2.31-.12,10.32,10.32,0,0,1-7.49-.63,7,7,0,0,0-4.28-.87c-1,.54-1.28,1.54-1.79,2.41a16.3,16.3,0,0,1-1.24,2.08c-1.07,1.33-2.37,2.24-4.43,1.58a3.24,3.24,0,0,1-1.46-3.11c0-.54,0-1.08,0-1.62a5.23,5.23,0,0,0-.87-3.45c-2.15-3.52-.27-6.92,3.84-7.05a8.94,8.94,0,0,1,2.59.34,17.79,17.79,0,0,0,8.41.26,1.63,1.63,0,0,0,.93-.33,4.09,4.09,0,0,0,.3-.41,3.76,3.76,0,0,0-2.93-1.78c-3.1-.54-5.56-2.22-8-4.06a9.58,9.58,0,0,1-3.84-6.84,21.25,21.25,0,0,0-.56-3.19,5.21,5.21,0,0,0-2.48-4,7.3,7.3,0,0,1-2.8-3.35c-1.08-2.7.44-4.74,3.32-4.54a6.46,6.46,0,0,1,3,1,9.61,9.61,0,0,1,2.59,2.51,4.68,4.68,0,0,0,2,1.89,11.37,11.37,0,0,1,4.59,3.48,2.34,2.34,0,0,0,1.79.79c3.42-.1,6.07,1.5,8.39,3.8a23.85,23.85,0,0,0,7,5c2.49,1.13,4.22,3.29,5.7,5.59a18.34,18.34,0,0,0,2.11,3.17c.53,1.16,1.09,2.31,1.6,3.49a6.44,6.44,0,0,0,3.65,3.6,22.59,22.59,0,0,1,6.37,4.19,9.7,9.7,0,0,0,2.75,1.64c2.34.9,3.12,2.53,2.44,5a9.73,9.73,0,0,1-1.28,2.73,7.05,7.05,0,0,0-1,6,16.13,16.13,0,0,1,.52,3.39,5.46,5.46,0,0,1-1.42,4.28,2.8,2.8,0,0,0-.49,3.66C573.11,326.38,572.84,328.1,572.87,329.77ZM541.77,288c.84,3.55,2.61,4.75,5,3.5C547,289,545.41,287.8,541.77,288Z" transform="translate(-29.23)"/>
    <path class="a" d="M560.36,213.13A12.11,12.11,0,0,1,562.2,210a1.9,1.9,0,0,1,2.13-.79,1.7,1.7,0,0,1,1.25,1.88,9.67,9.67,0,0,0,2.35,7.63c.84,1.08,1.47,2.21,2.83,2.7a4,4,0,0,1,1.91,1.74,23.67,23.67,0,0,0,1.88,2.63,5.09,5.09,0,0,0,6.57,1.27,6.82,6.82,0,0,0,3.44-3,8.9,8.9,0,0,1,1.49-1.64c.4-.43,1-.77.78-1.53-.68-.64-1.25-.08-1.81.2a2,2,0,0,1-2.45-.1,2.27,2.27,0,0,1-.54-2.43,4.62,4.62,0,0,1,3.06-3.26c1.13-.44,2.27-.86,3.39-1.32.68-.28,1.4-.55,1.62-1.38a1.05,1.05,0,0,0-1-1.08,12.86,12.86,0,0,0-1.61-.13,12.88,12.88,0,0,1-1.41,0c-1.78-.29-4.45-4.12-4.13-5.9a2.56,2.56,0,0,1,3.08-2.19,5.55,5.55,0,0,1,2.39,1,43.79,43.79,0,0,1,4.4,3.88,6.44,6.44,0,0,0,3.29,2.09c1.39-1.18,2-2.92,3.21-4.11a2,2,0,0,0-2.18-.79,7.56,7.56,0,0,1-7.5-4.17,7.08,7.08,0,0,0-4.08-3.42,4.9,4.9,0,0,1-3.26-3.59c-.65-2.34,0-3.78,2.15-5,2,.31,3.83,1.24,5.88,1.32a3.57,3.57,0,0,1,2,1.25c.75.68,1.48,1.37,2.29,2.11l3.65.23c-.16-1-.84-1.26-1.39-1.6-1.93-1.17-2.6-3-2-5.38a4.45,4.45,0,0,1,4.19-3.2c.4,0,.81,0,1.15,0,1.06.77,2,1.48,3,2.18a6.58,6.58,0,0,0,2.35,1.13,7.63,7.63,0,0,1,4.6,3.08,7.19,7.19,0,0,0,2.42,2.1,9.33,9.33,0,0,1,4.48,5.27,22.89,22.89,0,0,1,1.42,10.13,10,10,0,0,1-6.31,8.67c-2.73,1.16-5.41,2.38-8.26,3.27-2.58.81-4.33,3-5.81,5.15a52.35,52.35,0,0,0-4.78,8.44c-1.52,3.48-3.93,5.92-7.86,6.55a8.61,8.61,0,0,0-3,1.17,8.79,8.79,0,0,1-5.19,1.36c-1.88-.13-3.75,0-5.65-.16-1.58-.17-3.16.56-4.66,1.13a3.84,3.84,0,0,1-3.68-.15,9,9,0,0,0-4.82-1.26,3.17,3.17,0,0,1-2.12-.47c-.52-2-1.42-3.79-1.76-5.8a7.85,7.85,0,0,1,.77-5.1,3,3,0,0,1,2.7-1.84,5.2,5.2,0,0,0,2.62-.93c2.29-1.34,3.9-.81,5.15,1.54a11.28,11.28,0,0,0,1.3,2.67c.7-.16.5-.62.44-1a5.45,5.45,0,0,0-1.9-3.25,16.85,16.85,0,0,1-3.06-3.48c-1.25-2-1.33-4.2-1.39-6.43C560.64,216.33,560.09,214.72,560.36,213.13Z" transform="translate(-29.23)"/>
  </g>
</svg>
